/* XPM */
static char *center1689602374[] = {
/* columns rows colors chars-per-pixel */
"64 64 14 1 ",
"  c #404868",
". c #606078",
"X c #C84050",
"o c #D86860",
"O c #E89070",
"+ c #40B080",
"@ c #70C0A0",
"# c #60A8E8",
"$ c #808088",
"% c #F8B880",
"& c #98B0D8",
"* c #B8C8E0",
"= c #D8E0E8",
"- c #F8F8F8",
/* pixels */
"+++++++++++++++++++++++++++..........+++++++++++++++++++++++++++",
"++++++++++++++++++++++++...%X%%%%%%X%...++++++++++++++++++++++++",
"++++++++++++++++++++++..OOO%X%%%%%%X%OOO..++++++++++++++++++++++",
"+++++++++++++++++++++.OXOOO%X%%%%%%X%OOOXO.+++++++++++++++++++++",
"+++++++++++++++++++..OOXOOO%X%%%%%%X%OOOXOO..+++++++++++++++++++",
"++++++++++++++++++..OOOXOOO%X%%%%%%X%OOOXOOO..++++++++++++++++++",
"+++++++++++++++++.oXOOOXOOO%X%%%%%%X%OOOXOOOXo.+++++++++++++++++",
"++++++++++++++++.ooXOOOXOOO%X%%%%%%X%OOOXOOOXoo.++++++++++++++++",
"+++++++X........XooXOOOXOOO%X%%%%%%X%OOOXOOOXooX........X+++++++",
"++++++X%%%%X%%%XXooXOOOXOOO%X%%%%%%X%OOOXOOOXooX%%%X%%%XOX++++++",
"+++++X%%%%%X%%%XXooXOOOXOOO%X%%%%%%X%OOOXOOOXooX%%%X%%%XOOX+++++",
"++++X%%O%%%X%%%XXooXOOOXOOO%X%%%%%%X%OOOXOOOXooX%%%X%%%XOOOX++++",
"+++XX%OO%%%X%%%XXooXOOOXOOO%X%%%%%%X%OOOXOOOXooX%%%X%%%XOOOXX+++",
"++X%XOOO%%%X%%%XXooXOOOXOOO%X%%%%%%X%OOOXOOOXooX%%%X%%%XOOOXOX++",
"+X%%XOOO%%%X%%%XXooXOOOXOOO%X%%%%%%X%OOOXOOOXooX%%%X%%%XOOOXOOX+",
"X%%OXOOO%%%X%%%XXooXOOOXOOO%X%%%%%%X%OOOXOOOXooX%%%X%%%XOOOXOOOX",
" OOOXOOO%%%X%%%XXooXOOOXOOO..........OOOXOOOXooX%%%X%%%XOOOXOOO ",
" OOOXOOO%%%X%%%XXooXOOOX...XXXXXXXXXX...XOOOXooX%%%X%%%XOOOXOOO ",
" OOOXOOO%%%X%%%XXooXOO..XXXXXXXXXXXXXXXX..OOXooX%%%X%%%XOOOXOOO ",
" OOOXOOO%%%X%%%XXooXO.XXXXXXXXXXXXXXXXXXXX.OXooX%%%X%%%XOOOXOOO ",
" OOOXOOO%%%X%%%XXoo..XXXXXXXXXXXXXXXXXXXXXX..ooX%%%X%%%XOOOXOOO ",
" OOOXOOO%%%X%%%XXo..XXXXXXXXXXXXXXXXXXXXXXXX..oX%%%X%%%XOOOXOOO ",
" OOOXOOO%%%X%%%XX.XXXXXXXXXXXXXXXXXXXXXXXXXXXX.X%%%X%%%XOOOXOOO ",
" OOOXOOO%%%X%%%X................................%%%X%%%XOOOXOOO ",
" OOOXOOoXXXXXXXXXXXXXXXXXXXXXXXXXXXXXXXXXXXXXXXXXXXXXXXXoOOXOOO ",
" OOOXOooXXXXXXXXXXXXXXXXX.XXXX*==*XXXX.XXXXXXXXXXXXXXXXXooOXOOO ",
" OOOXoooXXXXXXXXXXXXXXXX.XXX*======*XXX.XXXXXXXXXXXXXXXXoooXOOO ",
" OOOXoooXXXXXXXXXXXXXXX.XXX==========XXX.XXXXXXXXXXXXXXXoooXOOO ",
" OOo..ooXXXXXXXXXXXXXXX.XX*==*XXXX*==*XX.XXXXXXXXXXXXXXXoo..oOO ",
" Oooo..oXXXXXXXXXXXXXX.XXX==*XO==OX*==XXX.XXXXXXXXXXXXXXo..oooO ",
" ooooo..XXXXXXXXXXXXXX.XX*==XO====OX==*XX.XXXXXXXXXXXXXX..ooooo ",
" Xooooo................XXoooX======XoooXX................oooooX ",
" .Xooooo...............XXXXXX******XXXXXX...............oooooX. ",
"  .XooooXXXXXXXXXXXXXX.XX***XO****OX***XX.XXXXXXXXXXXXXXooooX.  ",
" $ .XoooXXXXXXXXXXXXXX.XXX***XO**OX***XXX.XXXXXXXXXXXXXXoooX. $ ",
" &$ .XooXXXXXXXXXXXXXXX.XX****XXXX****XX.XXXXXXXXXXXXXXXooX. $& ",
" =&$ .XoXXXXXXXXXXXXXXX.XXX**********XXX.XXXXXXXXXXXXXXXoX. $&= ",
" -=&$ .XXXXXXXXXXXXXXXXX.XXX********XXX.XXXXXXXXXXXXXXXXX. $&=- ",
" $-=&$ ...................XXXo****oXXX................... $&=-$ ",
" &$-=&$                                                  $&=-$& ",
" &-$-=&..................................................&=-$-& ",
" &--$-=&................................................&=-$--& ",
" &---$-&&&&&&&&&&&&&&&&&&&&&&&&&&&&&&&&&&&&&&&&&&&&&&&&&&-$---& ",
" &----$&************************************************&$----& ",
" &-----$$$$$$$$$$$$$$$$$$$$$$$$$$$$$$$$$ ==----------== $-----& ",
" &-----&******** ############## ******** $$$$$$$$$$$$$$ &-----& ",
" &-----&******** ############## ********-..............-&-----& ",
" &-----&******** ############## ********----------------&-----& ",
" &-----&******** ############## ********-%ooo%----%ooo%-&-----& ",
" &-----&******** ############## ********-oo-oo----oo%---&-----& ",
" &-----&******** ############## ********-oo-oo----oo----&-----& ",
" =&----&******** ############## ********=XXXX==XX=XX%===&----&= ",
" ==&---&******** ############## ********=XX====XX=%XXX%=&---&== ",
" ===&--&******** ############## ********================&--&=== ",
" *===&-&******** ############## ********==XX=X=XX=X=XX==&-&===* ",
" **===&&******** ############## ********================&&===** ",
"$ **===&         &&&&&&&&&&&&&&                         &===** $",
"$$ **==&******** &&&&&&&&&&&&&& ************************&==** $$",
"+$$ **=&******** ************** ************************&=** $$+",
"++$$ **&******** ************** ************************&** $$++",
"@@@$$ *&&&&&&&&& ============== &&&&&&&&&&&&&&&&&&&&&&&&&* $$@@@",
"@+@+$$ &&&&&&&&&                &&&&&&&&&&&&&&&&&&&&&&&&& $$@@@@",
"@@@@@$$                                                  $$@+@@@",
"@@@@@@$$$$$$$$$$$$$$$$$$$$$$$$$$$$$$$$$$$$$$$$$$$$$$$$$$$$@@@@@@"
};
