/* XPM */
static char *_edab45f36da4334fb6e008be1f22f6bakDQH4cdZvmuLRhM[] = {
/* columns rows colors chars-per-pixel */
"64 64 3 1 ",
"  c #18A068",
". c #40B080",
"X c #70C0A0",
/* pixels */
"............    ............XXXX............    ................",
"............    ............XXXX............    ................",
"............    ............XXXX............    ................",
"............    ............XXXX............    ................",
"........XXXXXXXX............................................    ",
"........XXXXXXXX............................................    ",
"........XXXXXXXX............................................    ",
"........XXXXXXXX............................................    ",
"....    XXXXXXXX................................................",
"....    XXXXXXXX................................................",
"....    XXXXXXXX................................................",
"....    XXXXXXXX................................................",
"....................................XXXX........................",
"....................................XXXX........................",
"....................................XXXX........................",
"....................................XXXX........................",
"................................................XXXXXXXX........",
"................................................XXXXXXXX........",
"................................................XXXXXXXX........",
"................................................XXXXXXXX........",
"....................................    ........XXXXXXXX........",
"....................................    ........XXXXXXXX........",
"....................................    ........XXXXXXXX........",
"....................................    ........XXXXXXXX........",
"....XXXX........    ........................................    ",
"....XXXX........    ........................................    ",
"....XXXX........    ........................................    ",
"....XXXX........    ........................................    ",
"................................................................",
"................................................................",
"................................................................",
"................................................................",
"............    ............................    ............XXXX",
"............    ............................    ............XXXX",
"............    ............................    ............XXXX",
"............    ............................    ............XXXX",
"............................    ........XXXXXXXX................",
"............................    ........XXXXXXXX................",
"............................    ........XXXXXXXX................",
"............................    ........XXXXXXXX................",
"....................................    XXXXXXXX................",
"....................................    XXXXXXXX................",
"....................................    XXXXXXXX................",
"....................................    XXXXXXXX................",
"....XXXX........................................................",
"....XXXX........................................................",
"....XXXX........................................................",
"....XXXX........................................................",
"................XXXXXXXX........................................",
"................XXXXXXXX........................................",
"................XXXXXXXX........................................",
"................XXXXXXXX........................................",
"....    ........XXXXXXXX........................................",
"....    ........XXXXXXXX........................................",
"....    ........XXXXXXXX........................................",
"....    ........XXXXXXXX........................................",
"............................    ....XXXX........    ............",
"............................    ....XXXX........    ............",
"............................    ....XXXX........    ............",
"............................    ....XXXX........    ............",
"................................................................",
"................................................................",
"................................................................",
"................................................................"
};
