/* XPM */
static char *_97e9d382cf249c4def5e7ed1d69557eBFWNSpxmdOOaQAH0[] = {
/* columns rows colors chars-per-pixel */
"64 64 207 2 ",
"   c #2F2F2F",
".  c #313333",
"X  c #373A3A",
"o  c #383B38",
"O  c #402F2D",
"+  c #512E2A",
"@  c #562E29",
"#  c #5B2E28",
"$  c #5F2E28",
"%  c #48302E",
"&  c #5C312D",
"*  c #433432",
"=  c #453533",
"-  c #7C2E23",
";  c #74312C",
":  c #7A312C",
">  c #7C312C",
",  c #633C33",
"<  c #6D3F39",
"1  c #7B3930",
"2  c #2A463A",
"3  c #3F473D",
"4  c #33493F",
"5  c #574135",
"6  c #69403B",
"7  c #7B4237",
"8  c #7E4036",
"9  c #764038",
"0  c #7C4038",
"q  c #70493C",
"w  c #3D3D41",
"e  c #344F43",
"r  c #335144",
"t  c #345245",
"y  c #3B5043",
"u  c #3D5445",
"i  c #355C4C",
"p  c #366853",
"a  c #376B55",
"s  c #217653",
"d  c #387058",
"f  c #3C755B",
"g  c #3A7B5F",
"h  c #3A7E61",
"j  c #474F4F",
"k  c #4F4B4A",
"l  c #4C4D4C",
"z  c #5F4541",
"x  c #514B4A",
"c  c #544B4A",
"v  c #485043",
"b  c #4C5043",
"n  c #41564D",
"m  c #435B52",
"M  c #515759",
"N  c #53595B",
"B  c #52595D",
"V  c #555B5D",
"C  c #555C5D",
"Z  c #456157",
"A  c #5C5D62",
"S  c #585864",
"D  c #5C5B67",
"F  c #5D6464",
"G  c #5B656A",
"H  c #407F66",
"J  c #5D6E71",
"K  c #65656B",
"L  c #676777",
"P  c #6D6776",
"I  c #676D79",
"U  c #6D6F79",
"Y  c #72737A",
"T  c #77777F",
"R  c #962D1F",
"E  c #9D2E1E",
"W  c #A32E1D",
"Q  c #A62D1D",
"!  c #A82D1D",
"~  c #B22D1A",
"^  c #B52D1A",
"/  c #B92D19",
"(  c #BE2D19",
")  c #B2321F",
"_  c #822E23",
"`  c #8E2E20",
"'  c #82362B",
"]  c #943425",
"[  c #93322B",
"{  c #A02E20",
"}  c #A62F21",
"|  c #AD3427",
" . c #C12D18",
".. c #C42E19",
"X. c #CA2F1A",
"o. c #CD2F1C",
"O. c #D3301D",
"+. c #D6301D",
"@. c #DB311E",
"#. c #C33122",
"$. c #CF3427",
"%. c #C23429",
"&. c #C53428",
"*. c #D03321",
"=. c #DF3325",
"-. c #DE3427",
";. c #D23428",
":. c #C53F35",
">. c #E33425",
",. c #E93323",
"<. c #EA3427",
"1. c #EC3424",
"2. c #EC3729",
"3. c #E1382B",
"4. c #F33526",
"5. c #F73526",
"6. c #F73728",
"7. c #F73A2B",
"8. c #F73A2D",
"9. c #F73C2F",
"0. c #F73E31",
"q. c #86433C",
"w. c #92443D",
"e. c #9A433C",
"r. c #F74033",
"t. c #F74135",
"y. c #F74437",
"u. c #F7473B",
"i. c #8D4B47",
"p. c #F74B40",
"a. c #F75348",
"s. c #F7615A",
"d. c #F76E67",
"f. c #F7756F",
"g. c #F77774",
"h. c #3A8062",
"j. c #3D8263",
"k. c #3B8666",
"l. c #3B8968",
"z. c #3B8C6A",
"x. c #3C906C",
"c. c #18A068",
"v. c #3EA076",
"b. c #3FA378",
"n. c #3FA87B",
"m. c #3FA97C",
"M. c #588A76",
"N. c #598B78",
"B. c #5B917B",
"V. c #40AD7F",
"C. c #777281",
"Z. c #797A84",
"A. c #77778A",
"S. c #7C7B8F",
"D. c #7A7C8F",
"F. c #7D7D93",
"G. c #5F9A82",
"H. c #40B080",
"J. c #62A086",
"K. c #69B295",
"L. c #70C0A0",
"P. c #818199",
"I. c #8F8B9B",
"U. c #8D8B9D",
"Y. c #908C9C",
"T. c #93969F",
"R. c #99999F",
"E. c #908AA3",
"W. c #9D9DA5",
"Q. c #9595AE",
"!. c #9D9DBB",
"~. c #9F9FBF",
"^. c #AB9FBC",
"/. c #ACB0B0",
"(. c #F78D8D",
"). c #F79A9A",
"_. c #F7A3A3",
"`. c #A0A0C0",
"'. c #A4A4C3",
"]. c #A6A4C5",
"[. c #AEA2C0",
"{. c #B4AAC5",
"}. c #B3ABCD",
"|. c #B5B5C2",
" X c #B4AED0",
".X c #BBBAD0",
"XX c #BFB5D9",
"oX c #C3B9DD",
"OX c #C8BCE2",
"+X c #CCBDE2",
"@X c #CDBFE4",
"#X c #C0C0D4",
"$X c #CBCBDB",
"%X c #CECEDD",
"&X c #D5D5D7",
"*X c #DDDDDE",
"=X c #F7C2C2",
"-X c #D2C3E9",
";X c #DFD9E8",
":X c #D8C8F0",
">X c #DCCEF1",
",X c #E0DCE7",
"<X c #E7E5ED",
"1X c #E8E8E9",
"2X c #EFEFF2",
"3X c #F3F3F5",
"4X c #F8F8F8",
/* pixels */
"H.H.H.H.H.H.H.H.H.H.H.H.c.c.c.c.H.H.H.H.H.H.H.H.H.H.H.H.L.L.L.L.H.H.H.H.H.H.H.H.H.H.H.H.c.c.c.c.H.H.H.H.H.H.H.H.H.H.H.H.H.H.H.H.",
"H.H.H.H.H.H.H.H.H.H.H.H.c.c.c.c.H.H.H.H.H.H.H.H.H.H.H.H.L.L.L.L.H.H.H.H.H.H.H.H.H.H.H.H.c.c.c.c.H.H.H.H.H.H.H.H.H.H.H.H.H.H.H.H.",
"H.H.H.H.H.H.H.H.H.H.H.H.c.c.c.c.H.H.H.H.H.H.H.H.H.H.H.H.L.L.L.L.H.H.H.H.H.H.H.H.H.H.H.H.c.c.c.c.H.H.H.H.H.H.H.H.H.H.H.H.H.H.H.H.",
"H.H.H.H.H.H.H.H.H.H.H.H.c.c.c.c.H.H.H.H.H.H.H.H.H.H.H.H.L.L.L.L.H.H.H.H.H.H.H.H.H.H.H.H.c.c.c.c.H.H.H.H.H.H.H.H.H.H.H.H.H.H.H.H.",
"H.H.H.H.H.H.H.H.L.L.L.L.L.L.L.L.H.H.H.H.H.H.H.H.H.H.H.H.H.H.H.H.H.H.H.H.H.H.H.H.H.H.H.H.H.H.H.H.H.H.H.H.H.H.H.H.H.H.H.H.c.c.c.c.",
"H.H.H.H.H.H.H.H.L.L.L.L.L.L.L.L.H.H.H.H.H.H.H.H.H.H.H.H.H.H.H.H.H.H.H.H.H.H.H.H.H.H.H.H.H.H.H.H.H.H.H.H.H.H.H.H.H.H.H.H.c.c.c.c.",
"H.H.H.H.H.H.H.H.L.L.L.L.L.L.L.L.H.H.H.H.H.H.H.H.H.H.H.H.H.H.H.H.H.H.H.H.H.H.H.H.H.H.H.H.H.H.H.H.H.H.H.H.H.H.H.H.H.H.H.H.c.c.c.c.",
"H.H.H.H.H.H.H.H.L.L.L.L.L.L.L.L.H.H.H.H.H.H.H.H.H.H.H.H.H.H.H.H.H.H.H.H.H.H.H.H.H.H.H.H.H.H.H.H.H.H.H.H.H.H.H.H.H.H.H.H.c.c.c.c.",
"H.H.H.H.c.c.c.c.L.L.L.L.L.L.L.L.H.H.H.H.H.H.H.H.H.H.H.H.H.H.H.H.H.H.H.H.H.H.H.H.H.H.H.H.H.H.H.H.H.H.H.H.H.H.H.H.H.H.H.H.H.H.H.H.",
"H.H.H.H.c.c.c.c.L.L.L.L.L.L.L.L.H.H.H.H.H.H.H.H.H.H.H.H.H.H.H.H.H.H.H.H.H.H.H.H.H.H.H.H.H.H.H.H.H.H.H.H.H.H.H.H.H.H.H.H.H.H.H.H.",
"H.H.H.H.c.c.c.c.L.L.L.L.L.L.L.L.H.H.H.H.H.H.H.H.H.H.H.H.H.H.H.H.H.H.H.H.H.H.H.H.H.H.H.H.H.H.H.H.H.H.H.H.H.H.H.H.H.H.H.H.H.H.H.H.",
"H.H.H.H.c.c.c.c.L.L.L.L.L.L.L.L.H.H.H.H.H.H.H.H.H.H.H.H.H.H.H.H.H.H.H.H.H.H.H.H.H.H.H.H.H.H.H.H.H.H.H.H.H.H.H.H.H.H.H.H.H.H.H.H.",
"H.H.H.H.H.H.H.H.H.H.H.H.H.H.H.H.H.H.H.H.H.H.H.H.H.H.H.H.H.H.H.H.H.H.H.H.L.L.L.L.H.H.H.H.H.H.H.H.H.H.H.H.H.H.H.H.H.H.H.H.H.H.H.H.",
"H.H.H.H.H.H.H.H.H.H.H.H.H.H.H.H.H.H.H.H.H.H.H.H.H.H.H.H.H.H.H.H.H.H.H.H.L.L.L.L.H.H.H.H.H.H.H.H.H.H.H.H.H.H.H.H.H.H.H.H.H.H.H.H.",
"H.H.H.H.H.H.H.H.H.H.H.H.H.H.H.H.H.H.H.H.H.H.H.H.H.H.H.H.H.H.H.H.H.H.H.H.L.L.L.L.H.H.H.H.H.H.H.H.H.H.H.H.H.H.H.H.H.H.H.H.H.H.H.H.",
"H.H.H.H.H.H.H.H.H.H.H.H.H.H.H.H.H.H.H.H.H.H.H.H.H.H.H.H.H.H.H.H.H.H.H.H.L.L.L.L.H.H.H.H.H.H.H.H.H.H.H.H.H.H.H.H.H.H.H.H.H.H.H.H.",
"H.H.H.H.H.H.H.H.H.H.H.H.H.H.H.H.H.H.H.H.H.H.H.H.H.H.d                     h H.H.H.H.H.H.H.H.H.H.L.L.L.L.L.L.L.L.H.H.H.H.H.H.H.H.",
"H.H.H.H.H.H.H.H.H.H.H.H.H.H.H.H.H.H.H.H.H.H.n.r r r 7 %.%.%.%.%.%.%.%.%.%.q r r r V.H.H.H.H.H.H.L.L.L.L.L.L.L.L.H.H.H.H.H.H.H.H.",
"H.H.H.H.H.H.H.H.H.H.H.H.H.H.H.H.H.H.H.H.H.H.v.      [ 5.5.5.5.5.5.5.5.5.5.>       V.H.H.H.H.H.H.L.L.L.L.L.L.L.L.H.H.H.H.H.H.H.H.",
"H.H.H.H.H.H.H.H.H.H.H.H.H.H.H.H.H.H.H.H.H.p 3 &.&.&.-.5.5.5.5.5.5.5.5.5.5.;.&._ - e a H.H.H.H.H.L.L.L.L.L.L.L.L.H.H.H.H.H.H.H.H.",
"H.H.H.H.H.H.H.H.H.H.H.H.H.H.H.H.H.H.H.b.b.v & 0.0.0.7.5.5.5.5.5.5.5.5.5.5.5.5.} { O y b.m.H.H.H.L.L.L.L.L.L.L.L.H.H.H.H.H.H.H.H.",
"H.H.H.H.H.H.H.H.H.H.H.H.H.H.H.H.H.H.H.e   &.r.(.(.(.s.5.5.5.5.5.5.5.5.5.5.5.5.5.5. .R   i H.H.H.L.L.L.L.L.L.L.L.H.H.H.H.H.H.H.H.",
"H.H.H.H.H.H.H.H.H.H.H.H.H.H.H.H.H.n.v.b % :.p.).).).d.r.8.5.5.5.5.5.5.5.5.5.5.5.5. .E O u v.m.H.L.L.L.L.L.L.L.L.H.H.H.H.H.H.H.H.",
"H.H.H.H.H.H.H.H.H.H.H.H.H.H.H.H.H.h.  &.5.g.).4X4X4X=X(.s.5.5.5.5.5.5.5.5.5.5.5.5. . . .`   k.H.L.L.L.L.L.L.L.L.H.H.H.H.H.H.H.H.",
"H.H.H.H.L.L.L.L.H.H.H.H.H.H.H.H.c.s   &.5.g.).4X4X4X=X(.s.5.5.5.5.5.5.5.5.5.5.5.5. . . .`   k.H.H.H.H.H.H.H.H.H.H.H.H.H.c.c.c.c.",
"H.H.H.H.L.L.L.L.H.H.H.H.H.H.H.H.c.s   &.5.g.).4X4X4X=X(.s.5.5.5.5.5.5.5.5.5.5.5.5. . . .`   k.H.H.H.H.H.H.H.H.H.H.H.H.H.c.c.c.c.",
"H.H.H.H.L.L.L.L.H.H.H.H.H.H.H.H.2 , $.<.5.t.a._._._.f.u.0.5.5.5.5.5.5.5.5.5.5.5.5. . . .^ W 5 4 H.H.H.H.H.H.H.H.H.H.H.H.c.c.c.c.",
"H.H.H.H.L.L.L.L.H.H.H.H.H.H.H.H.  : 5.5.5.5.r.(.(.(.s.5.5.5.5.5.5.5.5.5.5.5.5.5.5. . . . . .$   H.H.H.H.H.H.H.H.H.H.H.H.c.c.c.c.",
"H.H.H.H.H.H.H.H.H.H.H.H.H.H.H.H.  : 5.5.5.5.6.y.y.y.9.5.5.5.5.5.5.5.5.5.5.5.5.o.X. . . . . .$   H.H.H.H.H.H.H.H.H.H.H.H.H.H.H.H.",
"H.H.H.H.H.H.H.H.H.H.H.H.H.H.H.H.  : 5.5.5.5.5.5.5.5.5.5.5.5.5.5.5.5.5.5.5.5.5... . . . . . .$   H.H.H.H.H.H.H.H.H.H.H.H.H.H.H.H.",
"H.H.H.H.H.H.H.H.H.H.H.H.H.H.H.H.  : 5.5.5.5.5.5.5.5.5.5.5.5.5.5.5.5.5.5.5.5.5... . . . . . .$   H.H.H.H.H.H.H.H.H.H.H.H.H.H.H.H.",
"H.H.H.H.H.H.H.H.H.H.H.H.H.H.H.H.  ; >.4.5.5.5.5.5.5.5.5.5.5.5.5.5.5.5.5.5.4.1. . . . . .( / #   H.H.H.H.H.H.H.H.H.H.H.H.H.H.H.H.",
"H.H.H.H.H.H.H.H.H.H.H.H.c.c.c.c.  @ R =.5.5.5.5.5.5.5.5.5.5.5.5.5.5.5.5.5.+. . . . . . .~ R +   H.H.H.H.H.H.H.H.H.H.H.H.L.L.L.L.",
"H.H.H.H.H.H.H.H.H.H.H.H.c.c.c.c.  = < | #.<.5.5.2.e.e.e.e.e.2.5.5.4.@.@.@.X. . . . ./ ! ] < *   H.H.H.H.H.H.H.H.H.H.H.H.L.L.L.L.",
"H.H.H.H.H.H.H.H.H.H.H.H.c.c.c.c.  o j ' R =.5.5.3.j j j j j 3.5.5.,. . . . . . . . .~ R 1 j X   H.H.H.H.H.H.H.H.H.H.H.H.L.L.L.L.",
"H.H.H.H.H.H.H.H.H.H.H.H.c.c.c.c.  o j z 6 q.w.w.i.D.T./.T.D.i.w.*.O. . . .~ ! 8 0 0 9 6 z j X   H.H.H.H.H.H.H.H.H.H.H.H.L.L.L.L.",
"H.H.H.H.H.H.H.H.H.H.H.H.H.H.H.H.  o j j j j j j B ~.$X4X$X~.B j )  . . . .Q R l j j j j j j X   H.H.H.H.H.H.H.H.H.H.H.H.H.H.H.H.",
"H.H.H.H.H.H.H.H.H.H.H.H.H.H.H.H.b.g . K Y M j j F 2X3X4X3X2XF j c c c c c x k j j j V Y A . N.K.H.H.H.H.H.H.H.H.H.H.H.H.H.H.H.H.",
"H.H.H.H.H.H.H.H.H.H.H.H.H.H.H.H.H.h.  K T N j j F 4X4X4X4X4XF j j j j j j j j j j j C T A   B.L.H.H.H.H.H.H.H.H.H.H.H.H.H.H.H.H.",
"H.H.H.H.H.H.H.H.H.H.H.H.H.H.H.H.H.h.  ^.-X<X*XT Z.'.%X4X%X'.B j j j j j j j j Y T @XXX!.A.  B.L.H.H.H.H.H.H.H.H.H.H.H.H.H.H.H.H.",
"H.H.H.H.H.H.H.H.H.H.H.H.H.H.H.H.H.l.t U.^.;X,XR.W.Q.|.&X|.Q.U U U U U U U U U I.Y.OX}.P.I n J.L.H.H.H.H.H.H.H.H.H.H.H.H.H.H.H.H.",
"H.H.H.H.H.H.H.H.H.H.H.H.H.H.H.H.H.H.H.e   [.>X4X1XT T T T T +X:X:X:X:X:X:X:X:X:X:X`.F.  Z L.L.L.H.H.H.H.H.H.H.H.H.H.H.H.H.H.H.H.",
"H.H.H.H.H.H.H.H.H.H.H.H.H.H.H.H.H.H.H.x.h.G C.#X.X{.{.{.{.{.-X:X:X:X:X:X:XoX X X XS J M.G.L.L.L.H.H.H.H.H.H.H.H.H.H.H.H.H.H.H.H.",
"H.H.H.H.H.H.H.H.H.H.H.H.H.H.H.H.H.H.H.H.H.e w ~.].:X:X:X:X:X:X:X:X:X:X:X:X X~.~.~.. m L.L.L.L.L.H.H.H.H.H.H.H.H.H.H.H.H.H.H.H.H.",
"H.H.H.H.L.L.L.L.H.H.H.H.H.H.H.H.H.H.H.H.H.x.H S D P E. X X X X X X X X X XS.S S S h.z.H.H.H.H.H.H.H.H.H.H.H.H.H.H.H.H.H.H.H.H.H.",
"H.H.H.H.L.L.L.L.H.H.H.H.H.H.H.H.H.H.H.H.H.H.v.      L ~.~.~.~.~.~.~.~.~.~.S       V.H.H.H.H.H.H.H.H.H.H.H.H.H.H.H.H.H.H.H.H.H.H.",
"H.H.H.H.L.L.L.L.H.H.H.H.H.H.H.H.H.H.H.H.H.H.H.H.H.H.d                     h H.H.H.H.H.H.H.H.H.H.H.H.H.H.H.H.H.H.H.H.H.H.H.H.H.H.",
"H.H.H.H.L.L.L.L.H.H.H.H.H.H.H.H.H.H.H.H.H.H.H.H.H.H.f o o o o o o o o o o j.H.H.H.H.H.H.H.H.H.H.H.H.H.H.H.H.H.H.H.H.H.H.H.H.H.H.",
"H.H.H.H.H.H.H.H.H.H.H.H.H.H.H.H.L.L.L.L.L.L.L.L.H.H.H.H.H.H.H.H.H.H.H.H.H.H.H.H.H.H.H.H.H.H.H.H.H.H.H.H.H.H.H.H.H.H.H.H.H.H.H.H.",
"H.H.H.H.H.H.H.H.H.H.H.H.H.H.H.H.L.L.L.L.L.L.L.L.H.H.H.H.H.H.H.H.H.H.H.H.H.H.H.H.H.H.H.H.H.H.H.H.H.H.H.H.H.H.H.H.H.H.H.H.H.H.H.H.",
"H.H.H.H.H.H.H.H.H.H.H.H.H.H.H.H.L.L.L.L.L.L.L.L.H.H.H.H.H.H.H.H.H.H.H.H.H.H.H.H.H.H.H.H.H.H.H.H.H.H.H.H.H.H.H.H.H.H.H.H.H.H.H.H.",
"H.H.H.H.H.H.H.H.H.H.H.H.H.H.H.H.L.L.L.L.L.L.L.L.H.H.H.H.H.H.H.H.H.H.H.H.H.H.H.H.H.H.H.H.H.H.H.H.H.H.H.H.H.H.H.H.H.H.H.H.H.H.H.H.",
"H.H.H.H.c.c.c.c.H.H.H.H.H.H.H.H.L.L.L.L.L.L.L.L.H.H.H.H.H.H.H.H.H.H.H.H.H.H.H.H.H.H.H.H.H.H.H.H.H.H.H.H.H.H.H.H.H.H.H.H.H.H.H.H.",
"H.H.H.H.c.c.c.c.H.H.H.H.H.H.H.H.L.L.L.L.L.L.L.L.H.H.H.H.H.H.H.H.H.H.H.H.H.H.H.H.H.H.H.H.H.H.H.H.H.H.H.H.H.H.H.H.H.H.H.H.H.H.H.H.",
"H.H.H.H.c.c.c.c.H.H.H.H.H.H.H.H.L.L.L.L.L.L.L.L.H.H.H.H.H.H.H.H.H.H.H.H.H.H.H.H.H.H.H.H.H.H.H.H.H.H.H.H.H.H.H.H.H.H.H.H.H.H.H.H.",
"H.H.H.H.c.c.c.c.H.H.H.H.H.H.H.H.L.L.L.L.L.L.L.L.H.H.H.H.H.H.H.H.H.H.H.H.H.H.H.H.H.H.H.H.H.H.H.H.H.H.H.H.H.H.H.H.H.H.H.H.H.H.H.H.",
"H.H.H.H.H.H.H.H.H.H.H.H.H.H.H.H.H.H.H.H.H.H.H.H.H.H.H.H.c.c.c.c.H.H.H.H.L.L.L.L.H.H.H.H.H.H.H.H.c.c.c.c.H.H.H.H.H.H.H.H.H.H.H.H.",
"H.H.H.H.H.H.H.H.H.H.H.H.H.H.H.H.H.H.H.H.H.H.H.H.H.H.H.H.c.c.c.c.H.H.H.H.L.L.L.L.H.H.H.H.H.H.H.H.c.c.c.c.H.H.H.H.H.H.H.H.H.H.H.H.",
"H.H.H.H.H.H.H.H.H.H.H.H.H.H.H.H.H.H.H.H.H.H.H.H.H.H.H.H.c.c.c.c.H.H.H.H.L.L.L.L.H.H.H.H.H.H.H.H.c.c.c.c.H.H.H.H.H.H.H.H.H.H.H.H.",
"H.H.H.H.H.H.H.H.H.H.H.H.H.H.H.H.H.H.H.H.H.H.H.H.H.H.H.H.c.c.c.c.H.H.H.H.L.L.L.L.H.H.H.H.H.H.H.H.c.c.c.c.H.H.H.H.H.H.H.H.H.H.H.H.",
"H.H.H.H.H.H.H.H.H.H.H.H.H.H.H.H.H.H.H.H.H.H.H.H.H.H.H.H.H.H.H.H.H.H.H.H.H.H.H.H.H.H.H.H.H.H.H.H.H.H.H.H.H.H.H.H.H.H.H.H.H.H.H.H.",
"H.H.H.H.H.H.H.H.H.H.H.H.H.H.H.H.H.H.H.H.H.H.H.H.H.H.H.H.H.H.H.H.H.H.H.H.H.H.H.H.H.H.H.H.H.H.H.H.H.H.H.H.H.H.H.H.H.H.H.H.H.H.H.H.",
"H.H.H.H.H.H.H.H.H.H.H.H.H.H.H.H.H.H.H.H.H.H.H.H.H.H.H.H.H.H.H.H.H.H.H.H.H.H.H.H.H.H.H.H.H.H.H.H.H.H.H.H.H.H.H.H.H.H.H.H.H.H.H.H.",
"H.H.H.H.H.H.H.H.H.H.H.H.H.H.H.H.H.H.H.H.H.H.H.H.H.H.H.H.H.H.H.H.H.H.H.H.H.H.H.H.H.H.H.H.H.H.H.H.H.H.H.H.H.H.H.H.H.H.H.H.H.H.H.H."
};
