/* XPM */
static char *e7507819d71c4abebe1b6d74b1db9f4fHliJxdd4iWCze55L[] = {
/* columns rows colors chars-per-pixel */
"64 64 134 2 ",
"   c #020202",
".  c #080605",
"X  c #030907",
"o  c #0B0805",
"O  c #060708",
"+  c #050A08",
"@  c #0B0B0A",
"#  c #110D0A",
"$  c #0B110D",
"%  c #13100C",
"&  c #1A160E",
"*  c #131212",
"=  c #1B1710",
"-  c #1D1D1D",
";  c #644323",
":  c #6A4625",
">  c #6E4C29",
",  c #704A27",
"<  c #734F2B",
"1  c #76502C",
"2  c #78512C",
"3  c #6F5431",
"4  c #715532",
"5  c #7E5631",
"6  c #32497F",
"7  c #656363",
"8  c #6F6C67",
"9  c #6C676B",
"0  c #6F6D6D",
"q  c #77716A",
"w  c #747474",
"e  c #7C7C7C",
"r  c #817F7C",
"t  c #168E5D",
"y  c #1A935F",
"u  c #179661",
"i  c #1A9B65",
"p  c #3A9E73",
"a  c #18A068",
"s  c #3CA376",
"d  c #3CA578",
"f  c #3EAA7C",
"g  c #42AC7D",
"h  c #84817E",
"j  c #CFA56F",
"k  c #D4AA73",
"l  c #DBAF75",
"z  c #D5AF79",
"x  c #DBAE7B",
"c  c #DDB176",
"v  c #DEB57D",
"b  c #E3B67B",
"n  c #E5B97D",
"m  c #E9BB7E",
"M  c #6A318C",
"N  c #73378D",
"B  c #71398B",
"V  c #7A3F8D",
"C  c #354C84",
"Z  c #37508B",
"A  c #754093",
"S  c #7E4695",
"D  c #747F98",
"F  c #A07E97",
"G  c #678C87",
"H  c #6B938E",
"J  c #76819C",
"K  c #79849E",
"L  c #788F9C",
"P  c #6E9995",
"I  c #7B919D",
"U  c #41AF81",
"Y  c #40B080",
"T  c #68B294",
"R  c #6BB799",
"E  c #6CBA9B",
"W  c #7B85A0",
"Q  c #7E95A3",
"!  c #7F98A6",
"~  c #70C0A0",
"^  c #858585",
"/  c #8D8D8D",
"(  c #908E8C",
")  c #87989F",
"_  c #999795",
"`  c #9D9A96",
"'  c #9C9C9C",
"]  c #A3819A",
"[  c #8197A2",
"{  c #8098A6",
"}  c #8697A8",
"|  c #AB86A2",
" . c #AD88A4",
".. c #B08BA7",
"X. c #B78FAD",
"o. c #B891AE",
"O. c #88BFBB",
"+. c #E6BA81",
"@. c #EBBC82",
"#. c #8DC2BC",
"$. c #EDC286",
"%. c #F2C384",
"&. c #F3C78B",
"*. c #97A5C3",
"=. c #9AA7C5",
"-. c #9CA9C7",
";. c #9EACCB",
":. c #9DB7C6",
">. c #9EB9C7",
",. c #9FBAC9",
"<. c #A0AECD",
"1. c #A0B7C3",
"2. c #A1B9C9",
"3. c #A3B9CA",
"4. c #A5B9C9",
"5. c #CFA3C5",
"6. c #D2A6C7",
"7. c #D3A6C7",
"8. c #D4A7C8",
"9. c #DAACCE",
"0. c #DBADCF",
"q. c #D9AFD1",
"w. c #DBAFD1",
"e. c #DDAED1",
"r. c #D6B0D1",
"t. c #8DC7C2",
"y. c #8FC9C4",
"u. c #CECFDB",
"i. c #CED2DB",
"p. c #D1D4DE",
"a. c #F1EEF2",
"s. c #F3F2F2",
"d. c #FEFBF7",
"f. c #FEFEFE",
/* pixels */
"Y Y Y Y Y Y Y Y Y Y Y Y a a a a Y Y Y Y Y Y Y Y Y Y Y Y ~ ~ ~ ~ Y Y Y Y Y Y Y Y Y Y Y Y i i a a Y Y Y Y Y Y Y Y Y Y Y Y Y Y Y Y ",
"Y Y Y Y Y Y Y Y Y Y Y Y a a a a Y Y Y Y Y Y Y Y Y Y Y Y ~ ~ ~ ~ Y Y Y Y Y Y Y Y Y Y Y Y a a a a Y Y Y Y Y Y Y Y Y Y Y Y Y Y Y Y ",
"Y Y Y Y Y Y Y Y Y Y Y Y a a a a Y Y Y Y Y Y Y Y Y Y Y Y ~ ~ ~ ~ Y Y Y Y Y Y Y Y Y Y Y Y a a a a Y Y Y Y Y Y Y Y Y Y Y Y Y Y Y Y ",
"Y Y Y Y Y Y Y Y Y Y Y Y a a a a Y Y Y Y Y Y Y Y Y Y Y Y ~ ~ ~ ~ Y Y Y Y Y Y Y Y Y Y Y Y a a a a Y Y Y Y Y Y Y Y Y Y Y Y Y Y Y Y ",
"Y Y Y Y Y Y Y Y ~ ~ ~ ~ ~ ~ ~ ~ Y Y Y Y Y Y Y Y Y Y Y Y Y Y Y Y Y Y Y Y Y Y Y Y Y Y Y Y Y Y Y Y Y Y Y Y Y Y Y Y Y Y Y Y a a a a ",
"Y Y Y Y Y Y Y Y ~ ~ ~ ~ ~ ~ ~ ~ Y Y Y Y Y Y Y Y Y Y Y Y Y Y Y Y Y Y Y Y Y Y Y Y Y Y Y Y Y Y Y Y Y Y Y Y Y Y Y Y Y Y Y Y a a a a ",
"Y Y Y Y Y Y Y Y ~ ~ ~ ~ ~ ~ ~ ~ Y Y Y Y Y Y Y Y Y Y Y Y Y Y Y Y Y Y Y Y Y Y Y Y Y Y Y Y Y Y Y Y Y Y Y Y Y Y Y Y Y Y Y Y a a a a ",
"Y Y Y Y Y Y Y Y ~ ~ ~ ~ ~ ~ ~ ~ Y Y Y Y Y Y Y Y Y Y Y Y U U Y U U U U U U U Y U U Y Y Y Y Y Y Y Y Y Y Y Y Y Y Y Y Y Y Y a a a a ",
"Y Y Y Y a a a a ~ ~ ~ ~ ~ ~ ~ ~ Y Y Y Y Y Y Y Y U U Q Q Q Q Q Q ! Q Q Q Q Q Q Q Q Q U f Y Y Y Y Y Y Y Y Y Y Y Y Y Y Y Y Y Y Y Y ",
"Y Y Y Y a a a a ~ ~ ~ ~ ~ ~ ~ ~ Y Y Y Y Y Y Y f U U Q Q Q Q Q Q Q Q Q Q Q Q Q Q Q Q U f Y Y Y Y Y Y Y Y Y Y Y Y Y Y Y Y Y Y Y Y ",
"Y Y Y Y a a a a ~ ~ ~ ~ ~ ~ ~ ~ Y Y Y Y Y f   O Q [ ,.,.,.,.,.,.,.,.>.,.,.,.,.,.Q Q O   f Y Y Y Y Y Y Y Y Y Y Y Y Y Y Y Y Y Y Y ",
"Y Y Y Y a a a a ~ ~ ~ ~ ~ ~ ~ ~ Y Y Y Y f d   @ [ { ,.,.,.,.,.,.,.,.,.,.,.,.,.,.! ! @   d f Y Y Y Y Y Y Y Y Y Y Y Y Y Y Y Y Y Y ",
"Y Y Y Y Y Y Y Y Y Y Y Y Y Y Y Y Y Y Y f   O ! ! ,.,.,.,.,.,.,.,.,.3.q.q.3.>.,.,.>.>.! Q O   f Y Y Y Y Y Y Y Y Y Y Y Y Y Y Y Y Y ",
"Y Y Y Y Y Y Y Y Y Y Y Y Y Y Y Y Y Y Y f   O ! ! ,.,.,.,.,.,.,.,.3.4.q.w.3.,.,.,.,.,.! Q     f Y Y Y Y Y Y Y Y Y Y Y Y Y Y Y Y Y ",
"Y Y Y Y Y Y Y Y Y Y Y Y Y Y Y Y Y Y U f   O 3.,.,.,.,.,.,.,.>.3.w.e.e.e.w.e.3.,.,.,.,.3.+   f U Y Y Y Y Y Y Y Y Y Y Y Y Y Y Y Y ",
"Y Y Y Y Y Y Y Y Y Y Y Y Y Y Y Y Y Y f d   @ ,.,.,.,.,.,.,.>.3.4.q.w.e.e.e.e.3.>.,.,.,.,.@ + d f Y Y Y Y Y Y Y Y Y Y Y Y Y Y Y Y ",
"Y Y Y Y Y Y Y Y Y Y Y Y Y Y Y Y Y f     Q Q 2.,.,.,.,.,.,.2.q.w.e.e.e.e.e.e.,.,.,.,.,.,.Q Q     E ~ ~ ~ ~ ~ ~ ~ Y Y Y Y Y Y Y Y ",
"Y Y Y Y Y Y Y Y Y Y Y Y Y Y Y Y Y f   O Q ! ,.,.,.,.,.,.3.4.w.e.e.e.e.w.w.w.2.,.:.,.>.>.Q Q O   E ~ ~ ~ ~ ~ ~ ~ Y Y Y Y Y Y Y Y ",
"Y Y Y Y Y Y Y Y Y Y Y Y Y Y Y Y Y f   O Q Q Q Q Q Q 2.2.w.e.e.e.e.e.w.w.,.,.,.,.Q Q Q Q Q Q O   E ~ ~ ~ ~ ~ ~ ~ Y Y Y Y Y Y Y Y ",
"Y Y Y Y Y Y Y Y Y Y Y Y Y Y Y Y Y f     Q Q Q Q Q Q 2.4.w.w.e.e.e.e.q.q.2.,.:.:.Q Q Q Q Q Q     E ~ ~ ~ ~ ~ ~ ~ Y Y Y Y Y Y Y Y ",
"Y Y Y Y Y Y Y Y Y Y Y Y Y Y Y Y f f   O Q Q I Q Q [ e.e.e.e.e.e.e.w.2.:.Q Q Q Q Q Q Q Q Q I O   E ~ ~ ~ ~ ~ ~ ~ Y Y Y Y Y Y Y Y ",
"Y Y Y Y Y Y Y Y Y Y Y Y Y Y Y Y Y f     Q Q Q Q [ } e.e.e.e.0.0.7.7.4.:.Q Q Q Q Q Q Q Q Q Q     E ~ ~ ~ ~ ~ ~ ~ Y Y Y Y Y Y Y Y ",
"Y Y Y Y Y Y Y Y Y Y Y Y Y Y Y Y Y f   O Q Q ,.2.e.e.e.w.e.0.o.| @ o k v ) Q Q Q Q Q Q Q Q Q X   E ~ ~ ~ ~ ~ ~ ~ Y Y Y Y Y Y Y Y ",
"Y Y Y Y Y Y Y Y Y Y Y Y Y Y Y Y f s o # L I 2.2.0.0.7.7.0.0...F @ # k v ) ) Q [ [ I Q Q Q Q # o T E ~ ~ ~ ~ ~ ~ Y Y Y Y Y Y Y Y ",
"Y Y Y Y ~ ~ ~ ~ Y Y Y Y Y Y Y f   . b l   O X.X.X.|   o | | @     # n %.b b b b b b ) Q Q Q v b +   f Y Y Y Y Y Y Y Y Y a a a a ",
"Y Y Y Y ~ ~ ~ ~ Y Y Y Y Y Y Y f   . b l   . X.X.| ]   o F F @   o & n %.b b b b b n ) I I I c b O   f Y Y Y Y Y Y Y Y Y a a a a ",
"Y Y Y Y ~ ~ ~ ~ Y Y Y Y Y Y Y f   . b l   . X. .              @ k b %.%.%.%.%.%.%.%.b b 1 , b b .   f Y Y Y Y Y Y Y Y Y a a a a ",
"Y Y Y Y ~ ~ ~ ~ Y Y Y Y Y Y Y f X $ k j . @  .] o o O O . O o & k n %.%.@.@.$.$.%.$.b b < , j l @ X Y Y Y Y Y Y Y Y Y Y a a a a ",
"Y Y Y Y Y Y Y Y Y Y Y Y Y Y Y Y s p @ % : ; @ & k j / / 7 7 x b %.%.%.@.q 8 ` ` b b b b 1 , # @ p f f U Y Y Y Y Y Y Y Y Y Y Y Y ",
"Y Y Y Y Y Y Y Y Y Y Y Y Y Y Y Y f f + + : ; o & b b ' ' 9 9 +.%.%.@.%.@.9 7 ' ' v b b b : : $ X f f Y Y Y Y Y Y Y Y Y Y Y Y Y Y ",
"Y Y Y Y Y Y Y Y Y Y Y Y Y Y Y Y Y Y d s . # k k b +.d.a.A B l n b b b x N M s.d.n b b b # O s d Y Y Y Y Y Y Y Y Y Y Y Y Y Y Y Y ",
"Y Y Y Y Y Y Y Y Y Y Y Y Y Y Y Y Y Y Y f X % c c b +.d.a.S A x b b b b x V N s.d.n b c c % X f Y Y Y Y Y Y Y Y Y Y Y Y Y Y Y Y Y ",
"Y Y Y Y Y Y Y Y Y Y Y Y a a a a Y Y Y Y s s 2 5 %.%.&.&.@.m %.%.%.%.%.%.@.@.&.&.b b 2 2 y u a a Y Y Y Y Y Y Y Y Y Y Y Y ~ ~ ~ ~ ",
"Y Y Y Y Y Y Y Y Y Y Y Y a a a a Y Y Y Y g g : > m m %.%.@.%.%.%.%.%.%.%.%.%.%.@.c c , : i a a a Y Y Y Y Y Y Y Y Y Y Y Y ~ ~ ~ ~ ",
"Y Y Y Y Y Y Y Y Y Y Y Y a a a a Y Y Y Y g f . . 5 5 @.%.%.%.%.%.b n %.%.%.%.%.%.5 1 . . i a a a Y Y Y Y Y Y Y Y Y Y Y Y ~ ~ ~ ~ ",
"Y Y Y Y Y Y Y Y Y Y Y Y a a a a Y Y g f s s @ $ , 2 b m m m %.m b b %.%.m m b n 2 , @ @ t u a a Y Y Y Y Y Y Y Y Y Y Y Y ~ ~ ~ ~ ",
"Y Y Y Y Y Y Y Y Y Y Y Y Y Y Y Y Y Y Y f O @ H G , : o # , 5 l b b b b l 5 1 # # : , G H $ + R ~ Y Y Y Y Y Y Y Y Y Y Y Y Y Y Y Y ",
"Y Y Y Y Y Y Y Y Y Y Y Y Y Y Y Y Y Y f f   . P H , ,   . : 2 l b b b b l 1 ,     : , H P +   R ~ Y Y Y Y Y Y Y Y Y Y Y Y Y Y Y Y ",
"Y Y Y Y Y Y Y Y Y Y Y Y Y Y Y Y f g 3 3 O.O.y.#., :   o / ` h h r r h ^ _ ` .   : > #.t.#.O.4 1 g Y Y Y Y Y Y Y Y Y Y Y Y Y Y Y ",
"Y Y Y Y Y Y Y Y Y Y Y Y Y Y Y Y Y f > 1 y.y.y.#., :   o ]  .g e e e e e ' ' .   : > #.y.y.t.1 > g Y Y Y Y Y Y Y Y Y Y Y Y Y Y Y ",
"Y Y Y Y Y Y Y Y Y Y Y Y Y Y Y f X $ $.m %.$.n z O # s.s.f.d.d.a.^ ^ a.d.f.d.s.s.*   z v %.$.$.@.$ . f Y Y Y Y Y Y Y Y Y Y Y Y Y ",
"Y Y Y Y Y Y Y Y Y Y Y Y Y Y Y f   o %.%.%.%.b c   @ f.f.f.f.f.s.^ ^ s.f.f.f.f.f.@   c n %.%.%.%.+   f Y Y Y Y Y Y Y Y Y Y Y Y Y ",
"Y Y Y Y Y Y Y Y Y Y Y Y Y Y Y f   . %.%.%.%.$.n   @ f.f.f.a.- @ . O @ - s.f.f.f.@   n $.%.%.%.%.O   g f Y Y Y Y Y Y Y Y Y Y Y Y ",
"Y Y Y Y Y Y Y Y Y Y Y Y Y Y Y f   . %.%.%.%.%.m   @ f.f.f.s.*         * s.f.f.f.@   m %.%.%.%.%..   f Y Y Y Y Y Y Y Y Y Y Y Y Y ",
"Y Y Y Y ~ ~ ~ ~ Y Y Y Y Y Y Y Y f s . O o o o @ Z C @ @ @ * 0 w w 0 o   @ @ @ @ C C @ . o o . . s f f g Y Y Y Y Y Y Y Y Y Y Y Y ",
"Y Y Y Y ~ ~ ~ ~ Y Y Y Y Y Y Y Y f f             Z C       @ w e e w O           C Z             f f Y Y Y Y Y Y Y Y Y Y Y Y Y Y ",
"Y Y Y Y ~ ~ ~ ~ Y Y Y Y Y Y Y Y g Y f f f d   . J J D J *.=.;.-.K W -.=.*.=.J J J J O   s f f f Y Y Y Y Y Y Y Y Y Y Y Y Y Y Y Y ",
"Y Y Y Y ~ ~ ~ ~ Y Y Y Y Y Y Y Y Y Y Y Y Y d   X J K J W -.;.;.-.K W ;.;.;.<.K K K K O   f f g Y Y Y Y Y Y Y Y Y Y Y Y Y Y Y Y Y ",
"Y Y Y Y Y Y Y Y Y Y Y Y Y Y Y Y ~ ~ ~ ~ ~ R   @ i.i.w.5.* O O O     O O   O 5.w.i.i.@   f Y Y Y Y Y Y Y Y Y Y Y Y Y Y Y Y Y Y Y ",
"Y Y Y Y Y Y Y Y Y Y Y Y Y Y Y Y ~ ~ ~ ~ ~ R   @ i.i.e.6.@                   7.w.p.p.+   f Y Y Y Y Y Y Y Y Y Y Y Y Y Y Y Y Y Y Y ",
"Y Y Y Y Y Y Y Y Y Y Y Y Y Y Y Y ~ ~ ~ ~ ~ ~ E T . O + @ s f f f f f f f f f $ O + O d f Y Y Y Y Y Y Y Y Y Y Y Y Y Y Y Y Y Y Y Y ",
"Y Y Y Y Y Y Y Y Y Y Y Y Y Y Y Y ~ ~ ~ ~ ~ ~ ~ E       + f Y Y Y Y Y Y Y Y Y +       f Y Y Y Y Y Y Y Y Y Y Y Y Y Y Y Y Y Y Y Y Y ",
"Y Y Y Y a a a a Y Y Y Y Y Y Y Y ~ ~ ~ ~ ~ ~ ~ ~ f f f f Y Y Y Y Y Y Y Y Y Y f f f f Y Y Y Y Y Y Y Y Y Y Y Y Y Y Y Y Y Y Y Y Y Y ",
"Y Y Y Y a a a a Y Y Y Y Y Y Y Y ~ ~ ~ ~ ~ ~ ~ ~ Y f Y Y Y Y Y Y Y Y Y Y Y Y Y Y f Y Y Y Y Y Y Y Y Y Y Y Y Y Y Y Y Y Y Y Y Y Y Y ",
"Y Y Y Y a a a a Y Y Y Y Y Y Y Y ~ ~ ~ ~ ~ ~ ~ ~ Y Y Y Y Y Y Y Y Y Y Y Y Y Y Y Y Y Y Y Y Y Y Y Y Y Y Y Y Y Y Y Y Y Y Y Y Y Y Y Y ",
"Y Y Y Y a a a a Y Y Y Y Y Y Y Y ~ ~ ~ ~ ~ ~ ~ ~ Y Y Y Y Y Y Y Y Y Y Y Y Y Y Y Y Y Y Y Y Y Y Y Y Y Y Y Y Y Y Y Y Y Y Y Y Y Y Y Y ",
"Y Y Y Y Y Y Y Y Y Y Y Y Y Y Y Y Y Y Y Y Y Y Y Y Y Y Y Y a a a a Y Y Y Y ~ ~ ~ ~ Y Y Y Y Y Y Y Y a a a a Y Y Y Y Y Y Y Y Y Y Y Y ",
"Y Y Y Y Y Y Y Y Y Y Y Y Y Y Y Y Y Y Y Y Y Y Y Y Y Y Y Y a a a a Y Y Y Y ~ ~ ~ ~ Y Y Y Y Y Y Y Y a a a a Y Y Y Y Y Y Y Y Y Y Y Y ",
"Y Y Y Y Y Y Y Y Y Y Y Y Y Y Y Y Y Y Y Y Y Y Y Y Y Y Y Y a a a a Y Y Y Y ~ ~ ~ ~ Y Y Y Y Y Y Y Y a a a a Y Y Y Y Y Y Y Y Y Y Y Y ",
"Y Y Y Y Y Y Y Y Y Y Y Y Y Y Y Y Y Y Y Y Y Y Y Y Y Y Y Y a a a i Y Y Y Y ~ ~ ~ ~ Y Y Y Y Y Y Y Y a a a a Y Y Y Y Y Y Y Y Y Y Y Y ",
"Y Y Y Y Y Y Y Y Y Y Y Y Y Y Y Y Y Y Y Y Y Y Y Y Y Y Y Y Y Y Y Y Y Y Y Y Y Y Y Y Y Y Y Y Y Y Y Y Y Y Y Y Y Y Y Y Y Y Y Y Y Y Y Y ",
"Y Y Y Y Y Y Y Y Y Y Y Y Y Y Y Y Y Y Y Y Y Y Y Y Y Y Y Y Y Y Y Y Y Y Y Y Y Y Y Y Y Y Y Y Y Y Y Y Y Y Y Y Y Y Y Y Y Y Y Y Y Y Y Y ",
"Y Y Y Y Y Y Y Y Y Y Y Y Y Y Y Y Y Y Y Y Y Y Y Y Y Y Y Y Y Y Y Y Y Y Y Y Y Y Y Y Y Y Y Y Y Y Y Y Y Y Y Y Y Y Y Y Y Y Y Y Y Y Y Y ",
"Y Y Y Y Y Y Y Y Y Y Y Y Y Y Y Y Y Y Y Y Y Y Y Y Y Y Y Y Y Y Y Y Y Y Y Y Y Y Y Y Y Y Y Y Y Y Y Y Y Y Y Y Y Y Y Y Y Y Y Y Y Y Y Y "
};
