/* XPM */
static char *e9ca630617fc4be8a1b44dd9133e083esIyDzvC7zDWLKHf2[] = {
/* columns rows colors chars-per-pixel */
"64 64 7 1 ",
"  c #385000",
". c #388830",
"X c #18A068",
"o c #80C060",
"O c #40B080",
"+ c #70C0A0",
"@ c #B0F880",
/* pixels */
"OOOOOOOOOOOOXXXXOOOOOOOOOOOO++++OOOOOOOOOOOOXXXXOOOOOOOOOOOOOOOO",
"OOOOOOOOOOOOXXXXOOOOOOOOOOOO++++OOOOOOOOOOOOXXXXOOOOOOOOOOOOOOOO",
"OOOOOOOOOOOOXXXXOOOOOOOOOOOO++++OOOOOOOOOOOOXXXXOOOOOOOOOOOOOOOO",
"OOOOOOOOOOOOXXXXOOOOOOOOOOOO++++OOOOOOOOOOOOXXXXOOOOOOOOOOOOOOOO",
"OOOOOOOO++++++++OOOOOOOO................OOOOOOOOOOOOOOOOOOOOXXXX",
"OOOOOOOO++++++++OOOOOOOO................OOOOOOOOOOOOOOOOOOOOXXXX",
"OOOOOOOO++++++++OOOOOOOO................OOOOOOOOOOOOOOOOOOOOXXXX",
"OOOOOOOO++++++++OOOOOOOO................OOOOOOOOOOOOOOOOOOOOXXXX",
"OOOOXXXX++++++++........oooooooooooooooo........OOOOOOOOOOOOOOOO",
"OOOOXXXX++++++++........oooooooooooooooo........OOOOOOOOOOOOOOOO",
"OOOOXXXX++++++++........oooooooooooooooo........OOOOOOOOOOOOOOOO",
"OOOOXXXX++++++++........oooooooooooooooo........OOOOOOOOOOOOOOOO",
"OOOOOOOOOOOO....oooooooo@@@@@@@@@@@@@@@@oooooooo....OOOOOOOOOOOO",
"OOOOOOOOOOOO....oooooooo@@@@@@@@@@@@@@@@oooooooo....OOOOOOOOOOOO",
"OOOOOOOOOOOO....oooooooo@@@@@@@@@@@@@@@@oooooooo....OOOOOOOOOOOO",
"OOOOOOOOOOOO....oooooooo@@@@@@@@@@@@@@@@oooooooo....OOOOOOOOOOOO",
"OOOOOOOO....oooo@@@@@@@@@@@@@@@@@@@@@@@@@@@@@@@@oooo....OOOOOOOO",
"OOOOOOOO....oooo@@@@@@@@@@@@@@@@@@@@@@@@@@@@@@@@oooo....OOOOOOOO",
"OOOOOOOO....oooo@@@@@@@@@@@@@@@@@@@@@@@@@@@@@@@@oooo....OOOOOOOO",
"OOOOOOOO....oooo@@@@@@@@@@@@@@@@@@@@@@@@@@@@@@@@oooo....OOOOOOOO",
"OOOOOOOO    oooooooo@@@@@@@@oooooooo@@@@@@@@oooooooo    OOOOOOOO",
"OOOOOOOO    oooooooo@@@@@@@@oooooooo@@@@@@@@oooooooo    OOOOOOOO",
"OOOOOOOO    oooooooo@@@@@@@@oooooooo@@@@@@@@oooooooo    OOOOOOOO",
"OOOOOOOO    oooooooo@@@@@@@@oooooooo@@@@@@@@oooooooo    OOOOOOOO",
"OOOOooooooooooooooooooooooooooooooooooooooooooooooooooooooooXXXX",
"OOOOooooooooooooooooooooooooooooooooooooooooooooooooooooooooXXXX",
"OOOOooooooooooooooooooooooooooooooooooooooooooooooooooooooooXXXX",
"OOOOooooooooooooooooooooooooooooooooooooooooooooooooooooooooXXXX",
"OOOO....oooooooo@@@@@@@@@@@@@@@@@@@@@@@@@@@@@@@@oooooooo....OOOO",
"OOOO....oooooooo@@@@@@@@@@@@@@@@@@@@@@@@@@@@@@@@oooooooo....OOOO",
"OOOO....oooooooo@@@@@@@@@@@@@@@@@@@@@@@@@@@@@@@@oooooooo....OOOO",
"OOOO....oooooooo@@@@@@@@@@@@@@@@@@@@@@@@@@@@@@@@oooooooo....OOOO",
"OOOO    ....oooooooo@@@@@@@@oooooooo@@@@@@@@oooooooo....    ++++",
"OOOO    ....oooooooo@@@@@@@@oooooooo@@@@@@@@oooooooo....    ++++",
"OOOO    ....oooooooo@@@@@@@@oooooooo@@@@@@@@oooooooo....    ++++",
"OOOO    ....oooooooo@@@@@@@@oooooooo@@@@@@@@oooooooo....    ++++",
"OOOO....oooooooo....oooooooo........oooooooo....oooooooo....OOOO",
"OOOO....oooooooo....oooooooo........oooooooo....oooooooo....OOOO",
"OOOO....oooooooo....oooooooo........oooooooo....oooooooo....OOOO",
"OOOO....oooooooo....oooooooo........oooooooo....oooooooo....OOOO",
"OOOOOOOO....oooooooo........oooooooo........oooooooo....OOOOOOOO",
"OOOOOOOO....oooooooo........oooooooo........oooooooo....OOOOOOOO",
"OOOOOOOO....oooooooo........oooooooo........oooooooo....OOOOOOOO",
"OOOOOOOO....oooooooo........oooooooo........oooooooo....OOOOOOOO",
"OOOO++++    ........oooooooo........oooooooo........    OOOOOOOO",
"OOOO++++    ........oooooooo........oooooooo........    OOOOOOOO",
"OOOO++++    ........oooooooo........oooooooo........    OOOOOOOO",
"OOOO++++    ........oooooooo........oooooooo........    OOOOOOOO",
"OOOOOOOOOOOO        ........        ........        OOOOOOOOOOOO",
"OOOOOOOOOOOO        ........        ........        OOOOOOOOOOOO",
"OOOOOOOOOOOO        ........        ........        OOOOOOOOOOOO",
"OOOOOOOOOOOO        ........        ........        OOOOOOOOOOOO",
"OOOOXXXXOOOO........                        ........OOOOOOOOOOOO",
"OOOOXXXXOOOO........                        ........OOOOOOOOOOOO",
"OOOOXXXXOOOO........                        ........OOOOOOOOOOOO",
"OOOOXXXXOOOO........                        ........OOOOOOOOOOOO",
"OOOOOOOOOOOOOOOOOOOO........................OOOOXXXXOOOOOOOOOOOO",
"OOOOOOOOOOOOOOOOOOOO........................OOOOXXXXOOOOOOOOOOOO",
"OOOOOOOOOOOOOOOOOOOO........................OOOOXXXXOOOOOOOOOOOO",
"OOOOOOOOOOOOOOOOOOOO........................OOOOXXXXOOOOOOOOOOOO",
"OOOOOOOOOOOOOOOOOOOOOOOOOOOOOOOOOOOOOOOOOOOOOOOOOOOOOOOOOOOOOOOO",
"OOOOOOOOOOOOOOOOOOOOOOOOOOOOOOOOOOOOOOOOOOOOOOOOOOOOOOOOOOOOOOOO",
"OOOOOOOOOOOOOOOOOOOOOOOOOOOOOOOOOOOOOOOOOOOOOOOOOOOOOOOOOOOOOOOO",
"OOOOOOOOOOOOOOOOOOOOOOOOOOOOOOOOOOOOOOOOOOOOOOOOOOOOOOOOOOOOOOOO"
};
